<svg viewBox="0 0 96 96" xmlns="http://www.w3.org/2000/svg" xmlns:xlink="http://www.w3.org/1999/xlink" id="Icons_Hike" overflow="hidden"><circle cx="53" cy="13" r="8"/><path d="M51.7 54.7 54.4 41.2 56.3 45.6C56.8 46.6 57.6 47.4 58.7 47.8L67 50.6 59.3 60.3 51.7 54.7ZM73.3 44.2 63 40.8C63 40.8 57.3 27.6 57.1 27.2 55.7 24.6 53 23 50.1 23 48.9 23 47.8 23.3 46.7 23.8 44.5 24.7 42.9 26.5 42.5 28.8L40.3 39.4 34.4 68.2 20.9 84.5C19.5 86.2 19.7 88.7 21.4 90.1 22.1 90.7 23 91 23.9 91 25.1 91 26.2 90.5 27 89.5L41 72.5C41.4 72 41.7 71.4 41.8 70.8L44.2 59.2 54.3 66.5 37.4 87.8C36.9 88.4 36.8 89.1 37.1 89.8 37.4 90.5 38 91 38.7 91.1 39.4 91.2 40.1 90.9 40.6 90.3L55 72.1 55 86.9C55 89 56.5 90.8 58.6 91.1 59.7 91.2 60.9 90.8 61.7 90.1 62.5 89.3 63 88.3 63 87.1L63 65C63 64.2 62.8 63.5 62.3 62.8L71 51.9C71.3 52 71.7 52 72 52 73.7 52 75.2 50.9 75.8 49.3 76.1 48.3 76.1 47.2 75.6 46.2 75.1 45.3 74.3 44.5 73.3 44.2Z"/><path d="M31.3 19.6C31.5 18.5 32.6 17.8 33.6 18 34.7 18.2 35.4 19.3 35.2 20.3 35 21.4 33.9 22.1 32.9 21.9 31.8 21.7 31.1 20.6 31.3 19.6ZM40.1 21.2C40.7 18.1 39.1 14.9 36.2 13.6 33.3 12.3 29.9 13 27.8 15.4 25.7 17.8 25.6 21.3 27.4 23.9 26.4 23.7 25.4 24.4 25.2 25.5L21.5 43.9C21 46 21.5 48.1 22.9 49.8 24.2 51.5 26.2 52.4 28.3 52.4 31.7 52.3 34.5 49.8 35.1 46.5L38.8 28.1C38.9 27.6 38.8 27.1 38.5 26.6 38.2 26.2 37.8 25.9 37.3 25.7L37.1 25.7C38.7 24.8 39.8 23.1 40.1 21.2Z"/></svg>