<?xml version="1.0" encoding="utf-8"?>
<!-- Generator: Adobe Illustrator 23.0.6, SVG Export Plug-In . SVG Version: 6.00 Build 0)  -->
<svg version="1.1" id="Layer_1" xmlns="http://www.w3.org/2000/svg" xmlns:xlink="http://www.w3.org/1999/xlink" x="0px" y="0px"
	 viewBox="0 0 48 48" style="enable-background:new 0 0 48 48;" xml:space="preserve">
<g>
	<path d="M26.8,23.9L24,25.5l-2.7-1.6c-0.7-0.4-1.6-0.2-2,0.5c-0.4,0.7-0.2,1.6,0.5,2l2.7,1.6l0,3.2c0,0.4,0.1,0.8,0.4,1
		c0.3,0.3,0.6,0.4,1,0.4c0.8,0,1.4-0.6,1.5-1.4l0-3.2l2.8-1.6c0.7-0.4,0.9-1.3,0.5-2C28.4,23.7,27.5,23.5,26.8,23.9z"/>
	<path d="M20.5,9.2c0.3,0,0.5-0.1,0.7-0.2l1.3-0.7l0,1.5c0,0.4,0.1,0.8,0.4,1c0.3,0.3,0.6,0.4,1,0.4c0.8,0,1.4-0.6,1.5-1.4l0-1.5
		L26.8,9c0.2,0.1,0.5,0.2,0.7,0.2c0.5,0,1-0.3,1.3-0.7c0.4-0.7,0.2-1.6-0.5-2l-3.5-2c0,0,0,0,0,0c0,0,0,0-0.1,0c0,0,0,0-0.1,0
		c0,0,0,0-0.1,0c0,0-0.1,0-0.1,0c0,0,0,0-0.1,0c0,0-0.1,0-0.1,0c0,0,0,0-0.1,0c0,0-0.1,0-0.1,0c0,0,0,0-0.1,0c0,0,0,0-0.1,0
		c0,0-0.1,0-0.1,0c0,0,0,0-0.1,0c0,0-0.1,0-0.1,0c0,0,0,0-0.1,0c0,0-0.1,0-0.1,0c0,0,0,0-0.1,0c0,0-0.1,0-0.1,0c0,0,0,0-0.1,0
		c0,0,0,0-0.1,0c0,0,0,0-0.1,0c0,0,0,0,0,0l-3.5,2c-0.7,0.4-0.9,1.3-0.5,2C19.5,8.9,20,9.2,20.5,9.2z"/>
	<path d="M26.8,39l-1.3,0.8l0-1.5c0-0.8-0.7-1.4-1.5-1.4c-0.4,0-0.8,0.2-1,0.4c-0.3,0.3-0.4,0.6-0.4,1l0,1.5L21.3,39
		c-0.7-0.4-1.6-0.2-2,0.5c-0.2,0.3-0.2,0.7-0.1,1.1c0.1,0.4,0.3,0.7,0.7,0.9l3.5,2l0,0l0,0c0,0,0.1,0,0.1,0c0,0,0,0,0.1,0
		c0,0,0,0,0.1,0c0.1,0,0.3,0.1,0.4,0.1l0.1,0c0,0,0,0,0,0h0l0,0c0.2,0,0.3,0,0.4-0.1c0,0,0,0,0,0l0,0c0,0,0,0,0.1,0c0,0,0,0,0.1,0
		l3.5-2c0.7-0.4,0.9-1.3,0.5-2C28.3,38.9,27.5,38.6,26.8,39z"/>
	<path d="M36.1,15.5l1.4,0.8l-1.4,0.8c-0.7,0.4-0.9,1.3-0.5,2c0.3,0.4,0.7,0.7,1.3,0.7c0.3,0,0.5-0.1,0.7-0.2l1.3-0.7l0,1.5
		c0,0.8,0.6,1.5,1.5,1.5c0.8,0,1.4-0.6,1.5-1.4l0-4c0,0,0,0,0,0c0,0,0,0,0,0c0.1-0.6-0.2-1.1-0.7-1.4l-3.5-2
		c-0.3-0.2-0.7-0.2-1.1-0.1c-0.4,0.1-0.7,0.3-0.9,0.7c-0.2,0.3-0.2,0.7-0.1,1.1C35.5,15,35.8,15.3,36.1,15.5z"/>
	<path d="M10.5,13L7,15c-0.5,0.3-0.8,0.8-0.7,1.4c0,0,0,0,0,0c0,0,0,0,0,0l0,4c0,0.8,0.7,1.4,1.5,1.4c0.4,0,0.8-0.2,1-0.4
		c0.3-0.3,0.4-0.6,0.4-1l0-1.5l1.3,0.7c0.2,0.1,0.5,0.2,0.7,0.2c0.5,0,1-0.3,1.3-0.7c0.2-0.3,0.2-0.7,0.1-1.1
		c-0.1-0.4-0.3-0.7-0.7-0.9l-1.4-0.8l1.4-0.8c0.7-0.4,0.9-1.3,0.5-2C12,12.8,11.2,12.6,10.5,13z"/>
	<path d="M41.8,31.5C41.8,31.5,41.8,31.5,41.8,31.5l0-4c0-0.8-0.7-1.4-1.5-1.4c-0.8,0-1.4,0.7-1.4,1.5l0,1.5l-1.3-0.7
		c-0.7-0.4-1.6-0.2-2,0.5c-0.4,0.7-0.2,1.6,0.5,2l1.4,0.8l-1.4,0.8c-0.3,0.2-0.6,0.5-0.7,0.9c-0.1,0.4-0.1,0.8,0.1,1.1
		c0.3,0.5,0.7,0.7,1.3,0.7c0.3,0,0.5-0.1,0.7-0.2l3.5-2C41.5,32.6,41.8,32.1,41.8,31.5C41.8,31.5,41.8,31.5,41.8,31.5z"/>
	<path d="M11.9,32.4l-1.4-0.8l1.4-0.8c0.7-0.4,0.9-1.3,0.5-2c-0.4-0.7-1.3-0.9-2-0.5L9.2,29l0-1.5c0-0.8-0.6-1.5-1.5-1.5
		c-0.8,0-1.4,0.6-1.5,1.4l0,4c0,0,0,0,0,0c0,0,0,0,0,0c-0.1,0.6,0.2,1.1,0.7,1.4l3.5,2c0.2,0.1,0.5,0.2,0.7,0.2c0.5,0,1-0.3,1.3-0.7
		C12.8,33.7,12.6,32.8,11.9,32.4z"/>
</g>
</svg>
