<?xml version="1.0" encoding="utf-8"?>
<!-- Generator: Adobe Illustrator 23.0.6, SVG Export Plug-In . SVG Version: 6.00 Build 0)  -->
<svg version="1.1" id="Layer_1" xmlns="http://www.w3.org/2000/svg" xmlns:xlink="http://www.w3.org/1999/xlink" x="0px" y="0px"
	 viewBox="0 0 48 48" style="enable-background:new 0 0 48 48;" xml:space="preserve">
<g>
	<path d="M40,41H8c-2.8,0-5-2.2-5-5V12c0-2.8,2.2-5,5-5h5.9l3.7-4h12.9l3.7,4H40c2.8,0,5,2.2,5,5v24C45,38.8,42.8,41,40,41z M8,9
		c-1.7,0-3,1.3-3,3v24c0,1.7,1.3,3,3,3h32c1.7,0,3-1.3,3-3V12c0-1.7-1.3-3-3-3h-6.8l-3.7-4H18.4l-3.7,4H8z M24,35
		c-6.1,0-11-4.9-11-11s4.9-11,11-11s11,4.9,11,11S30.1,35,24,35z M24,15c-5,0-9,4-9,9c0,5,4,9,9,9c5,0,9-4,9-9C33,19,29,15,24,15z"
		/>
</g>
</svg>
