<?xml version="1.0" encoding="utf-8"?>
<!-- Generator: Adobe Illustrator 23.0.6, SVG Export Plug-In . SVG Version: 6.00 Build 0)  -->
<svg version="1.1" id="Layer_1" xmlns="http://www.w3.org/2000/svg" xmlns:xlink="http://www.w3.org/1999/xlink" x="0px" y="0px"
	 viewBox="0 0 48 48" style="enable-background:new 0 0 48 48;" xml:space="preserve">
<g>
	<path d="M33.6,40.3H14.3c-0.4,0-0.8-0.3-0.8-0.8V24.2c-0.1,0.2-0.4,0.4-0.6,0.4H6.7c-0.2,0-0.5-0.1-0.6-0.3C5.9,24,5.9,23.7,6,23.5
		l5-12.3c0-0.1,0.1-0.2,0.2-0.2l2.4-2.4c0.1-0.1,0.3-0.2,0.5-0.2h4.3c0.4,0,0.8,0.3,0.8,0.8c0,1.5,2.1,2.8,4.6,2.8s4.7-1.3,4.7-2.8
		c0-0.4,0.3-0.8,0.8-0.8h4.3c0.2,0,0.4,0.1,0.5,0.2l2.4,2.4c0.1,0.1,0.1,0.1,0.2,0.2l5.3,12.2c0.1,0.2,0.1,0.5-0.1,0.7
		c-0.1,0.2-0.4,0.3-0.6,0.3H35c-0.3,0-0.5-0.1-0.7-0.4v15.5C34.3,40,34,40.3,33.6,40.3z M15,38.8h17.8V21.2c0-0.3,0.2-0.6,0.6-0.7
		c0.3-0.1,0.7,0.1,0.8,0.4l1.2,2.1h4.6l-4.8-11l-2.1-2.1h-3.3c-0.5,2-3,3.5-6.1,3.5c-3,0-5.5-1.5-6.1-3.5h-3.3l-2.1,2.1L7.8,23h4.6
		l1.2-2.1c0.2-0.3,0.5-0.4,0.8-0.4c0.3,0.1,0.6,0.4,0.6,0.7V38.8z"/>
</g>
</svg>
