<?xml version="1.0" encoding="utf-8"?>
<!-- Generator: Adobe Illustrator 23.0.6, SVG Export Plug-In . SVG Version: 6.00 Build 0)  -->
<svg version="1.1" id="Layer_1" xmlns="http://www.w3.org/2000/svg" xmlns:xlink="http://www.w3.org/1999/xlink" x="0px" y="0px"
	 viewBox="0 0 48 48" style="enable-background:new 0 0 48 48;" xml:space="preserve">
<g>
	<path d="M43.5,14.7L43.5,14.7v-3.9c0-2.2-1.8-4-4-4h-1.8V3.4c0-0.2-0.2-0.4-0.4-0.4h-3.1c-0.2,0-0.4,0.2-0.4,0.4v3.4h-19V3.4
		c0-0.2-0.2-0.4-0.4-0.4h-3.1C11.2,3,11,3.2,11,3.4v3.4H9.3c-2.2,0-4,1.8-4,4v3.9l0,0v2l0,0V41c0,2.2,1.8,4,4,4h30.2
		c2.2,0,4-1.8,4-4V16.7l0,0V14.7z M7.4,10.8c0-1.1,0.9-2,2-2h30.2c1.1,0,2,0.9,2,2v3.9H7.4V10.8z M41.5,41c0,1.1-0.9,2-2,2H9.3
		c-1.1,0-2-0.9-2-2V16.7h34.2V41z"/>
</g>
<g>
	<circle cx="24.5" cy="30.6" r="2.6"/>
	<path d="M22,22.4l-1.5,1.7h-2.6c-0.9,0-1.6,0.7-1.6,1.6v9.9c0,0.9,0.7,1.6,1.6,1.6h13.2c0.9,0,1.6-0.7,1.6-1.6v-9.9
		c0-0.9-0.7-1.6-1.6-1.6h-2.6L27,22.5h-5V22.4z M24.5,34.8c-2.3,0-4.1-1.8-4.1-4.1s1.8-4.1,4.1-4.1s4.1,1.8,4.1,4.1
		S26.8,34.8,24.5,34.8z"/>
</g>
</svg>
