<?xml version="1.0" encoding="utf-8"?>
<!-- Generator: Adobe Illustrator 23.1.0, SVG Export Plug-In . SVG Version: 6.00 Build 0)  -->
<svg version="1.1" id="Layer_1" xmlns="http://www.w3.org/2000/svg" xmlns:xlink="http://www.w3.org/1999/xlink" x="0px" y="0px"
	 viewBox="0 0 48 48" style="enable-background:new 0 0 48 48;" xml:space="preserve">
<g>
	<path d="M45.2,13.7L45.2,13.7V9.4c0-2.4-2-4.4-4.4-4.4h-2V1.2c0-0.2-0.2-0.4-0.4-0.4h-3.4c-0.2,0-0.4,0.2-0.4,0.4v3.8h-21V1.2
		c0-0.2-0.2-0.4-0.4-0.4H9.5C9.4,0.7,9.2,1,9.2,1.2v3.8H7.3c-2.4,0-4.4,2-4.4,4.4v4.3l0,0v2.2l0,0v26.9c0,2.4,2,4.4,4.4,4.4h33.5
		c2.4,0,4.4-2,4.4-4.4V15.9l0,0V13.7z M5.2,9.4c0-1.2,1-2.2,2.2-2.2h33.5c1.2,0,2.2,1,2.2,2.2v4.3H5.2V9.4z M42.9,42.8
		c0,1.2-1,2.2-2.2,2.2H7.3c-1.2,0-2.2-1-2.2-2.2V15.9h37.9V42.8z"/>
	<polygon points="17.2,40.3 23.8,33.7 30.3,40.3 33.4,37.1 26.9,30.5 33.4,24 30.3,20.9 23.8,27.4 17.2,20.9 14.1,24 20.7,30.5 
		14.1,37.1 	"/>
</g>
</svg>
