<?xml version="1.0" encoding="utf-8"?>
<!-- Generator: Adobe Illustrator 23.0.6, SVG Export Plug-In . SVG Version: 6.00 Build 0)  -->
<svg version="1.1" id="Layer_1" xmlns="http://www.w3.org/2000/svg" xmlns:xlink="http://www.w3.org/1999/xlink" x="0px" y="0px"
	 viewBox="0 0 48 48" style="enable-background:new 0 0 48 48;" xml:space="preserve">
<g>
	<path d="M43.5,14.7L43.5,14.7v-3.9c0-2.2-1.8-4-4-4h-1.8V3.4c0-0.2-0.2-0.4-0.4-0.4h-3.1c-0.2,0-0.4,0.2-0.4,0.4v3.4h-19V3.4
		c0-0.2-0.2-0.4-0.4-0.4h-3.1C11.2,3,11,3.2,11,3.4v3.4H9.3c-2.2,0-4,1.8-4,4v3.9l0,0v2l0,0V41c0,2.2,1.8,4,4,4h30.2
		c2.2,0,4-1.8,4-4V16.7l0,0V14.7z M7.4,10.8c0-1.1,0.9-2,2-2h30.2c1.1,0,2,0.9,2,2v3.9H7.4V10.8z M41.5,41c0,1.1-0.9,2-2,2H9.3
		c-1.1,0-2-0.9-2-2V16.7h34.2V41z"/>
</g>
</svg>
