<?xml version="1.0" encoding="utf-8"?>
<!-- Generator: Adobe Illustrator 23.0.6, SVG Export Plug-In . SVG Version: 6.00 Build 0)  -->
<svg version="1.1" id="Layer_1" xmlns="http://www.w3.org/2000/svg" xmlns:xlink="http://www.w3.org/1999/xlink" x="0px" y="0px"
	 viewBox="0 0 48 48" style="enable-background:new 0 0 48 48;" xml:space="preserve">
<style type="text/css">
	.st0{fill:none;}
</style>
<path d="M41,6c-0.1,0-0.2,0-0.3,0.1L30,10.2L18,6L6.7,9.8C6.3,9.9,6,10.3,6,10.8V41c0,0.5,0.4,1,1,1c0.1,0,0.2,0,0.3,0L18,37.8
	L30,42l11.3-3.8c0.4-0.2,0.7-0.5,0.7-1V7C42,6.4,41.5,6,41,6z M30,38l-12-4.2V10l12,4.2V38z"/>
<path class="st0" d="M0,0h48v48H0V0z"/>
</svg>
