<?xml version="1.0" encoding="utf-8"?>
<!-- Generator: Adobe Illustrator 23.0.6, SVG Export Plug-In . SVG Version: 6.00 Build 0)  -->
<svg version="1.1" id="Layer_1" xmlns="http://www.w3.org/2000/svg" xmlns:xlink="http://www.w3.org/1999/xlink" x="0px" y="0px"
	 viewBox="0 0 50 50" style="enable-background:new 0 0 50 50;" xml:space="preserve">
<style type="text/css">
	.st0{fill:#FF7E5F;}
	.st1{fill:#E87058;}
	.st2{fill:#FFFFFF;}
</style>
<g>
	<path class="st0" d="M23.3,7.3c6.4,0.3,11.9,6,12.2,12.7c0.4,6.7-9.7,23.4-10.3,24.2c-0.6-0.9-12.6-18.7-12.9-25.4
		C12,12.1,16.9,7,23.3,7.3z"/>
	<path class="st1" d="M37.7,18.9L37.7,18.9c0-0.2,0-0.3,0-0.3l0-0.1l0,0c0-0.2,0-0.4-0.1-0.6l0,0l0-0.1c0-0.2,0-0.4-0.1-0.6l0-0.1
		c0-0.1,0-0.3-0.1-0.4l0-0.1c0-0.1,0-0.2-0.1-0.3l0-0.2l0-0.2c0-0.2-0.1-0.3-0.1-0.5l0-0.1l0,0c-0.1-0.2-0.1-0.4-0.2-0.5l-0.1-0.1
		c0-0.1-0.1-0.2-0.1-0.3l0-0.1c-0.1-0.2-0.1-0.3-0.2-0.5l-0.1-0.1c-0.1-0.2-0.2-0.4-0.3-0.6l0,0L36.1,13c-0.1-0.1-0.1-0.2-0.2-0.4
		l-0.1-0.2c-0.1-0.1-0.1-0.2-0.2-0.3l-0.1-0.2c-0.1-0.1-0.1-0.2-0.2-0.3l-0.2-0.2C35,11.2,35,11.1,34.9,11l-0.2-0.2
		c-0.1-0.1-0.1-0.2-0.2-0.3l-0.2-0.2l-0.2-0.3l-0.2-0.2l-0.2-0.3l-0.2-0.2l-0.3-0.2l-0.1-0.1L33,9c-0.1-0.1-0.2-0.2-0.3-0.3
		l-0.2-0.1c-0.2-0.1-0.3-0.3-0.5-0.4l0,0c-0.2-0.1-0.3-0.2-0.5-0.3l-0.2-0.1l-0.3-0.2l-0.1,0l-0.1-0.1c-0.1-0.1-0.2-0.1-0.3-0.2
		l-0.1-0.1l-0.1,0C30.2,7.1,30.1,7.1,30,7l0,0c-0.1,0-0.2-0.1-0.3-0.1l-0.1,0c-0.2-0.1-0.3-0.1-0.5-0.2l-0.1,0l0,0
		c-0.2-0.1-0.4-0.1-0.6-0.2l0,0l-0.1,0c-0.1,0-0.3-0.1-0.4-0.1l-0.1,0l-0.2,0c-0.1,0-0.3-0.1-0.4-0.1L27,6l-0.2,0
		c-0.1,0-0.2,0-0.4-0.1l-0.1,0l-0.1,0c-0.1,0-0.3,0-0.4,0l-0.2,0l-0.2,0c-0.2,0-0.3,0-0.5,0h0c-0.1,0-0.3,0-0.4,0l-0.1,0l-0.2,0
		l-0.1,0l-0.2,0l-0.3,0l-0.2,0l-0.1,0l-0.2,0l-0.2,0L23,6l-0.2,0l0,0l-0.1,0l-0.3,0.1l-0.2,0l-0.2,0.1l-0.1,0l-0.1,0
		c-0.1,0-0.3,0.1-0.4,0.1l-0.1,0c-0.2,0.1-0.3,0.1-0.5,0.2l0,0l-0.1,0c-0.1,0-0.2,0.1-0.3,0.1l-0.2,0.1L20,7l-0.1,0.1l-0.3,0.2
		l-0.1,0.1c-0.1,0.1-0.3,0.2-0.4,0.2L16.9,9C17,9,17.1,8.9,17.3,8.8l0.1-0.1l0.3-0.2l0.1-0.1l0.3-0.1l0.2-0.1c0.1,0,0.2-0.1,0.3-0.1
		l0.1-0.1C18.8,8,19,8,19.1,7.9l0.1,0c0.1,0,0.3-0.1,0.4-0.1l0.2,0L20,7.6l0.2,0l0.3-0.1l0.2,0l0.2,0l0.2,0l0.2,0l0.2,0l0.2,0l0.3,0
		l0.2,0c0.1,0,0.2,0,0.3,0l0.1,0c0.1,0,0.3,0,0.4,0c0.2,0,0.3,0,0.5,0c0.1,0,0.3,0,0.4,0c0.1,0,0.3,0,0.4,0l0.3,0
		c0.1,0,0.2,0,0.4,0.1l0.3,0c0.1,0,0.3,0.1,0.4,0.1l0.2,0.1c0.1,0,0.3,0.1,0.4,0.1l0.2,0c0.2,0.1,0.4,0.1,0.6,0.2l0.1,0.1
		c0.2,0.1,0.3,0.1,0.5,0.2c0.1,0.1,0.3,0.1,0.4,0.2l0,0c0.2,0.1,0.3,0.2,0.5,0.2l0.1,0.1c0.1,0.1,0.2,0.1,0.3,0.2L28.9,9
		c0.1,0.1,0.2,0.1,0.3,0.2l0.2,0.1c0.2,0.1,0.3,0.2,0.5,0.3c0.2,0.1,0.3,0.3,0.5,0.4l0.2,0.1c0.1,0.1,0.2,0.2,0.3,0.3l0.2,0.2
		l0.3,0.2l0.2,0.2l0.2,0.3l0.2,0.2l0.2,0.3l0.2,0.2c0.1,0.1,0.1,0.2,0.2,0.3l0.2,0.2c0.1,0.1,0.1,0.2,0.2,0.3l0.2,0.2
		c0.1,0.1,0.1,0.2,0.2,0.3l0.1,0.2c0.1,0.1,0.1,0.2,0.2,0.3l0.1,0.2c0.1,0.1,0.1,0.2,0.2,0.4l0.1,0.2c0.1,0.2,0.2,0.4,0.3,0.6
		l0.1,0.1c0.1,0.2,0.1,0.3,0.2,0.5c0,0.1,0.1,0.3,0.1,0.4l0.1,0.1c0.1,0.2,0.1,0.4,0.2,0.5l0,0.1c0,0.2,0.1,0.3,0.1,0.5l0,0.2
		c0,0.2,0.1,0.3,0.1,0.5l0,0.1c0,0.2,0.1,0.3,0.1,0.5c0,0.2,0.1,0.4,0.1,0.6l0,0.1c0,0.2,0,0.4,0.1,0.6l0,0.1c0,0.1,0,0.2,0,0.3
		l0,0.1c0,0.1,0,0.2,0,0.3l0,0.1c0,0.2,0,0.3,0,0.5l0,0.2l0,0.2l0,0.2l0,0.2l0,0.1c0,0.1,0,0.2-0.1,0.4l0,0.2c0,0.1-0.1,0.3-0.1,0.4
		l0,0.1c-0.1,0.2-0.1,0.4-0.2,0.7l0,0.1c-0.1,0.2-0.1,0.4-0.2,0.7l0,0.1c0,0.1-0.1,0.3-0.1,0.4l0,0.2c-0.1,0.2-0.1,0.4-0.2,0.6
		l0,0.1c-0.1,0.2-0.1,0.3-0.2,0.5L34,26.7c-0.1,0.2-0.1,0.3-0.2,0.5l0,0.1c-0.1,0.4-0.3,0.7-0.4,1.1l0,0.1c-0.1,0.4-0.3,0.7-0.5,1.1
		l0,0.1c-0.2,0.4-0.3,0.8-0.5,1.1l0,0c-0.2,0.4-0.3,0.8-0.5,1.1l-0.1,0.1c-0.1,0.2-0.2,0.4-0.3,0.7l0,0c-0.1,0.2-0.2,0.4-0.3,0.6
		L31,33.6c-0.1,0.2-0.2,0.4-0.3,0.7l0,0.1c-0.1,0.2-0.2,0.4-0.3,0.6l-0.1,0.1c-0.1,0.2-0.2,0.4-0.3,0.6l-0.1,0.1
		c-0.1,0.2-0.2,0.4-0.3,0.5l-0.1,0.1c-0.1,0.2-0.2,0.4-0.3,0.6l-0.1,0.1c-0.1,0.2-0.2,0.4-0.3,0.5l-0.1,0.1
		c-0.1,0.2-0.2,0.4-0.3,0.6l-0.1,0.1c-0.1,0.2-0.2,0.3-0.3,0.5l0,0.1c-0.1,0.2-0.2,0.4-0.3,0.5l-0.1,0.1c-0.1,0.2-0.2,0.3-0.3,0.5
		l0,0c-0.1,0.2-0.2,0.3-0.3,0.5l-0.1,0.1c-0.1,0.2-0.2,0.3-0.3,0.5l0,0c-0.1,0.1-0.2,0.3-0.2,0.4l-0.1,0.1c-0.1,0.1-0.1,0.3-0.2,0.4
		l-0.1,0.2l0,0l-0.1,0.2l0,0.1L26,42.9l0,0l-0.1,0.2l0,0l-0.1,0.2l0,0l-0.1,0.2l0,0l-0.1,0.2l0,0l-0.1,0.1l0,0
		c-0.1,0.2-0.2,0.3-0.2,0.3l2.1-1.5l0.1-0.1l0,0l0.1-0.2l0,0l0.1-0.1l0,0l0.1-0.1l0,0l0.1-0.2l0,0l0.1-0.2l0,0l0.1-0.2l0,0l0.1-0.2
		l0-0.1l0.1-0.2l0,0l0.1-0.2l0,0c0.1-0.1,0.1-0.2,0.2-0.4l0.1-0.1c0.1-0.1,0.1-0.3,0.2-0.4l0-0.1c0.1-0.1,0.2-0.3,0.3-0.4l0.1-0.1
		c0.1-0.2,0.2-0.3,0.3-0.5l0,0c0.1-0.2,0.2-0.3,0.3-0.5l0.1-0.1c0.1-0.2,0.2-0.3,0.3-0.5l0-0.1c0.1-0.2,0.2-0.3,0.3-0.5l0.1-0.1
		c0.1-0.2,0.2-0.4,0.3-0.6l0.1-0.1c0.1-0.2,0.2-0.3,0.3-0.5l0.1-0.1c0.1-0.2,0.2-0.4,0.3-0.6l0.1-0.1c0.1-0.2,0.2-0.4,0.3-0.5
		l0.1-0.1c0.1-0.2,0.2-0.4,0.3-0.6l0.1-0.1c0.1-0.2,0.2-0.4,0.3-0.6l0-0.1c0.1-0.2,0.2-0.4,0.3-0.6l0.1-0.2c0.1-0.2,0.2-0.4,0.3-0.6
		l0,0c0.1-0.2,0.2-0.4,0.3-0.7l0-0.1l0,0c0.2-0.4,0.3-0.7,0.5-1.1l0,0c0.2-0.4,0.3-0.8,0.5-1.1l0-0.1c0.2-0.4,0.3-0.7,0.5-1.1l0-0.1
		c0.2-0.4,0.3-0.8,0.4-1.1l0,0l0-0.1c0.1-0.2,0.1-0.3,0.2-0.5l0.1-0.2c0.1-0.2,0.1-0.3,0.2-0.5l0-0.1c0.1-0.2,0.1-0.4,0.2-0.6l0-0.2
		c0-0.1,0.1-0.3,0.1-0.4l0-0.1l0,0c0.1-0.2,0.1-0.5,0.2-0.7l0-0.1c0.1-0.2,0.1-0.4,0.2-0.7l0,0l0-0.1c0-0.1,0.1-0.3,0.1-0.4l0-0.2
		c0-0.1,0-0.2,0.1-0.4l0-0.1l0,0l0-0.2l0-0.2l0-0.2l0-0.1l0,0c0-0.2,0-0.3,0-0.5l0,0l0-0.1C37.7,19.2,37.7,19.1,37.7,18.9L37.7,18.9
		z"/>
	<path class="st2" d="M23.9,17.7c1.1,0.2,2,1.3,2,2.4s-0.9,1.8-2,1.6s-2-1.3-2-2.4C21.9,18.2,22.8,17.5,23.9,17.7z"/>
	<path class="st2" d="M22,13.1l-1.2,1l-2-0.4c-0.7-0.1-1.2,0.3-1.2,1v7.6c0,0.7,0.5,1.3,1.2,1.5L29,25.6c0.7,0.1,1.2-0.3,1.2-1v-7.4
		c0-0.7-0.5-1.3-1.2-1.4l-2-0.4L25.9,14L22,13.1L22,13.1z M23.9,22.9c-1.8-0.3-3.2-2-3.2-3.7s1.4-2.8,3.2-2.5c1.8,0.4,3.2,2,3.2,3.7
		S25.7,23.2,23.9,22.9z"/>
</g>
</svg>
