<?xml version="1.0" encoding="utf-8"?>
<!-- Generator: Adobe Illustrator 23.0.6, SVG Export Plug-In . SVG Version: 6.00 Build 0)  -->
<svg version="1.1" id="Layer_1" xmlns="http://www.w3.org/2000/svg" xmlns:xlink="http://www.w3.org/1999/xlink" x="0px" y="0px"
	 viewBox="0 0 48 48" style="enable-background:new 0 0 48 48;" xml:space="preserve">
<style type="text/css">
	.st0{fill:#231F20;}
</style>
<g>
	<path class="st0" d="M24,44.5L23.6,44C23,43.3,9.9,25.6,9.9,17.9c0-7.8,6.3-14.1,14.1-14.1c7.8,0,14.1,6.3,14.1,14.1
		c0,7.6-13.1,25.3-13.7,26.1L24,44.5z M24,4.8c-7.2,0-13.1,5.9-13.1,13.1c0,6.6,10.9,21.9,13.1,25c2.2-3.1,13.1-18.4,13.1-25
		C37.1,10.7,31.2,4.8,24,4.8z"/>
</g>
<g>
	<circle cx="24" cy="18.7" r="2.6"/>
	<path d="M21.5,10.5L20,12.2h-2.6c-0.9,0-1.6,0.7-1.6,1.6v9.9c0,0.9,0.7,1.6,1.6,1.6h13.2c0.9,0,1.6-0.7,1.6-1.6v-9.9
		c0-0.9-0.7-1.6-1.6-1.6H28l-1.5-1.6h-5V10.5z M24,22.9c-2.3,0-4.1-1.8-4.1-4.1s1.8-4.1,4.1-4.1s4.1,1.8,4.1,4.1S26.3,22.9,24,22.9z
		"/>
</g>
</svg>
