<?xml version="1.0" encoding="utf-8"?>
<!-- Generator: Adobe Illustrator 23.1.0, SVG Export Plug-In . SVG Version: 6.00 Build 0)  -->
<svg version="1.1" id="Layer_1" xmlns="http://www.w3.org/2000/svg" xmlns:xlink="http://www.w3.org/1999/xlink" x="0px" y="0px"
	 viewBox="0 0 48 48" style="enable-background:new 0 0 48 48;" xml:space="preserve">
<g>
	<g>
		<g>
			<g>
				<path d="M36.8,19.5c-3,0-5.4-2.4-5.4-5.4s2.4-5.4,5.4-5.4c3,0,5.4,2.4,5.4,5.4S39.8,19.5,36.8,19.5z M36.8,10.3
					c-2.1,0-3.7,1.7-3.7,3.7s1.7,3.7,3.7,3.7s3.7-1.7,3.7-3.7S38.9,10.3,36.8,10.3z"/>
			</g>
			<g>
				<path d="M39.1,21.7h-4.4c-0.4,0-0.9-0.3-0.9-0.9s0.3-0.9,0.9-0.9h4.4c0.4,0,0.9,0.3,0.9,0.9S39.5,21.7,39.1,21.7z"/>
			</g>
			<g>
				<path d="M38.1,24.1h-2.6c-0.4,0-0.9-0.3-0.9-0.9c0-0.6,0.3-0.9,0.9-0.9h2.6c0.4,0,0.9,0.3,0.9,0.9C39,23.8,38.5,24.1,38.1,24.1z
					"/>
			</g>
		</g>
		<g>
			<g>
				<path d="M29.8,15h-2.8c-0.4,0-0.9-0.3-0.9-0.9c0-0.6,0.3-0.9,0.9-0.9h2.8c0.4,0,0.9,0.3,0.9,0.9C30.7,14.6,30.3,15,29.8,15z"/>
			</g>
			<g>
				<path d="M31.9,10c-0.2,0-0.4-0.1-0.6-0.2l-2-2c-0.3-0.3-0.3-0.9,0-1.2c0.3-0.3,0.9-0.3,1.2,0l2,2c0.3,0.3,0.3,0.9,0,1.2
					C32.4,9.9,32.2,10,31.9,10z"/>
			</g>
			<g>
				<path d="M36.8,8c-0.4,0-0.9-0.3-0.9-0.9V4.4c0-0.4,0.3-0.9,0.9-0.9s0.9,0.3,0.9,0.9v2.8C37.7,7.6,37.2,8,36.8,8z"/>
			</g>
			<g>
				<path d="M41.7,10c-0.2,0-0.4-0.1-0.6-0.2c-0.3-0.3-0.3-0.9,0-1.2l2-2c0.3-0.3,0.9-0.3,1.2,0c0.3,0.3,0.3,0.9,0,1.2l-2,2
					C42.2,9.9,42,10,41.7,10z"/>
			</g>
			<g>
				<path d="M46.5,15h-2.8c-0.4,0-0.9-0.3-0.9-0.9c0-0.6,0.3-0.9,0.9-0.9h2.8c0.4,0,0.9,0.3,0.9,0.9C47.4,14.6,46.9,15,46.5,15z"/>
			</g>
		</g>
	</g>
	<g>
		<path d="M33.3,44.5h-28c-1.9,0-4.6-1.2-4.6-4.6v-21c0-1.9,1.2-4.6,4.6-4.6h5.1l2.9-3.2c0.2-0.2,0.6-0.3,0.8-0.3h8.2
			c0.7,0,1.1,0.4,1.1,1.1c0,0.7-0.4,1.1-1.1,1.1h-7.6l-2.9,3.2c-0.2,0.2-0.6,0.3-0.8,0.3H5.4c-2.2,0-2.4,2-2.4,2.4v21
			c0,2.2,2,2.4,2.4,2.4h28.1c2.2,0,2.4-2,2.4-2.4V26.3c0-0.7,0.4-1.1,1.1-1.1s1.1,0.4,1.1,1.1v13.6C37.9,41.7,36.7,44.5,33.3,44.5z"
			/>
	</g>
	<g>
		<path d="M19.3,39.2c-5.4,0-9.9-4.4-9.9-9.9c0-5.4,4.4-9.9,9.9-9.9c5.4,0,9.9,4.4,9.9,9.9S24.7,39.2,19.3,39.2z M19.3,21.7
			c-4.2,0-7.7,3.4-7.7,7.7c0,4.2,3.4,7.7,7.7,7.7s7.7-3.4,7.7-7.7S23.4,21.7,19.3,21.7z"/>
	</g>
</g>
</svg>
