<?xml version="1.0" encoding="utf-8"?>
<!-- Generator: Adobe Illustrator 23.0.6, SVG Export Plug-In . SVG Version: 6.00 Build 0)  -->
<svg version="1.1" id="Layer_1" xmlns="http://www.w3.org/2000/svg" xmlns:xlink="http://www.w3.org/1999/xlink" x="0px" y="0px"
	 viewBox="0 0 48 48" style="enable-background:new 0 0 48 48;" xml:space="preserve">
<style type="text/css">
	.st0{fill:#231F20;}
</style>
<g>
	<path class="st0" d="M24,44.5L23.6,44C23,43.3,9.9,25.6,9.9,17.9c0-7.8,6.3-14.1,14.1-14.1c7.8,0,14.1,6.3,14.1,14.1
		c0,7.6-13.1,25.3-13.7,26.1L24,44.5z M24,4.8c-7.2,0-13.1,5.9-13.1,13.1c0,6.6,10.9,21.9,13.1,25c2.2-3.1,13.1-18.4,13.1-25
		C37.1,10.7,31.2,4.8,24,4.8z"/>
</g>
<g>
	<path class="st0" d="M25.2,18.7L24,19.4l-1.2-0.7c-0.3-0.2-0.7-0.1-0.9,0.2c-0.2,0.3-0.1,0.7,0.2,0.9l1.2,0.7v1.4
		c0,0.2,0.1,0.3,0.2,0.5s0.3,0.2,0.5,0.2c0.4,0,0.7-0.3,0.7-0.7v-1.4l1.2-0.7c0.3-0.2,0.4-0.6,0.2-0.9
		C25.9,18.6,25.5,18.5,25.2,18.7z"/>
	<path class="st0" d="M22.4,12.1c0.1,0,0.2,0,0.3-0.1l0.5-0.4v0.7c0,0.2,0.1,0.3,0.2,0.5c0.1,0.1,0.3,0.2,0.5,0.2
		c0.4,0,0.7-0.3,0.7-0.7v-0.7l0.6,0.4c0.1,0.1,0.2,0.1,0.3,0.1c0.2,0,0.5-0.1,0.6-0.3c0.2-0.3,0.1-0.7-0.2-0.9L24.3,10l0,0l0,0l0,0
		l0,0l0,0l0,0l0,0l0,0l0,0l0,0l0,0l0,0l0,0l0,0l0,0l0,0l0,0l0,0l0,0l0,0l0,0l0,0l-1.5,0.9c-0.3,0.2-0.4,0.6-0.2,0.9
		C22,12,22.2,12.1,22.4,12.1z"/>
	<path class="st0" d="M25.2,25.5l-0.6,0.3v-0.7c0-0.4-0.3-0.7-0.7-0.7c-0.2,0-0.3,0.1-0.5,0.2c-0.1,0.1-0.2,0.3-0.2,0.5v0.7
		l-0.6-0.3c-0.3-0.2-0.7-0.1-0.9,0.2c-0.1,0.2-0.1,0.3-0.1,0.5s0.2,0.3,0.3,0.4l1.5,0.9l0,0l0,0l0,0l0,0l0,0c0,0,0.1,0,0.2,0l0,0
		l0,0l0,0l0,0c0.1,0,0.1,0,0.2,0l0,0l0,0l0,0l0,0l1.6-0.9c0.3-0.2,0.4-0.6,0.2-0.9S25.5,25.3,25.2,25.5z"/>
	<path class="st0" d="M29.4,14.9l0.6,0.4l-0.6,0.3c-0.3,0.2-0.4,0.6-0.2,0.9c0.1,0.2,0.3,0.3,0.6,0.3c0.1,0,0.2,0,0.3-0.1l0.6-0.3
		v0.7c0,0.4,0.3,0.7,0.7,0.7c0.4,0,0.7-0.3,0.7-0.7v-1.8l0,0l0,0c0-0.2-0.1-0.5-0.3-0.6l-1.5-0.9c-0.2-0.1-0.3-0.1-0.5,0
		c-0.2,0-0.3,0.2-0.4,0.3c-0.1,0.2-0.1,0.3,0,0.5C29.1,14.7,29.2,14.9,29.4,14.9z"/>
	<path class="st0" d="M17.9,13.8l-1.5,0.9c-0.2,0.1-0.3,0.4-0.3,0.6l0,0l0,0v1.8c0,0.4,0.3,0.7,0.7,0.7c0.2,0,0.3-0.1,0.5-0.2
		c0.1-0.1,0.2-0.2,0.2-0.5v-0.7l0.6,0.3c0.1,0,0.2,0.1,0.3,0.1c0.2,0,0.5-0.1,0.6-0.3c0.1-0.2,0.1-0.3,0.1-0.5
		c0-0.2-0.2-0.3-0.3-0.4L18,15.3l0.6-0.4c0.3-0.2,0.4-0.6,0.2-0.9C18.6,13.7,18.2,13.6,17.9,13.8z"/>
	<path class="st0" d="M31.9,22.1L31.9,22.1v-1.8c0-0.4-0.3-0.7-0.7-0.7c-0.4,0-0.7,0.3-0.7,0.7V21L30,20.6c-0.3-0.2-0.7-0.1-0.9,0.2
		c-0.2,0.3-0.1,0.7,0.2,0.9l0.6,0.4l-0.6,0.3c-0.2,0.1-0.2,0.2-0.3,0.4c0,0.2,0,0.3,0,0.5c0.1,0.2,0.3,0.3,0.6,0.3
		c0.1,0,0.2,0,0.3-0.1l1.5-0.9C31.8,22.6,31.9,22.3,31.9,22.1L31.9,22.1z"/>
	<path class="st0" d="M18.5,22.5l-0.6-0.4l0.6-0.4c0.3-0.2,0.4-0.6,0.2-0.9c-0.2-0.3-0.6-0.4-0.9-0.2L17.3,21v-0.7
		c0-0.4-0.3-0.7-0.7-0.7c-0.4,0-0.7,0.3-0.7,0.7v1.8l0,0l0,0c0,0.2,0.1,0.5,0.3,0.6l1.5,0.9c0.1,0,0.2,0.1,0.3,0.1
		c0.2,0,0.5-0.1,0.6-0.3C19,23,18.8,22.6,18.5,22.5z"/>
</g>
</svg>
