<?xml version="1.0" encoding="utf-8"?>
<!-- Generator: Adobe Illustrator 23.0.6, SVG Export Plug-In . SVG Version: 6.00 Build 0)  -->
<svg version="1.1" id="Layer_1" xmlns="http://www.w3.org/2000/svg" xmlns:xlink="http://www.w3.org/1999/xlink" x="0px" y="0px"
	 viewBox="0 0 48 48" style="enable-background:new 0 0 48 48;" xml:space="preserve">
<style type="text/css">
	.st0{fill:none;}
</style>
<g>
	<path d="M24,45c-0.3,0-0.6-0.1-0.7-0.3C22.7,44,9,28.8,9,18C9,9.7,15.7,3,24,3c8.3,0,15,6.7,15,15c0,10.8-13.7,26-14.3,26.7
		C24.6,44.9,24.3,45,24,45z M24,5c-7.2,0-13,5.8-13,13c0,8.6,10.1,21.1,13,24.5c2.9-3.4,13-15.8,13-24.5C37,10.8,31.2,5,24,5z
		 M24,24c-3.3,0-6-2.7-6-6s2.7-6,6-6s6,2.7,6,6S27.3,24,24,24z"/>
</g>
<path class="st0" d="M0,0h48v48H0V0z"/>
</svg>
