<?xml version="1.0" encoding="utf-8"?>
<!-- Generator: Adobe Illustrator 23.1.0, SVG Export Plug-In . SVG Version: 6.00 Build 0)  -->
<svg version="1.1" id="Layer_1" xmlns="http://www.w3.org/2000/svg" xmlns:xlink="http://www.w3.org/1999/xlink" x="0px" y="0px"
	 viewBox="0 0 48 48" style="enable-background:new 0 0 48 48;" xml:space="preserve">
<style type="text/css">
	.st0{fill:#231F20;}
</style>
<g>
	<g>
		<path class="st0" d="M24,9.7c-0.5,0-0.9-0.3-0.9-0.9V2.4c0-0.5,0.3-0.9,0.9-0.9s0.9,0.3,0.9,0.9v6.5C24.9,9.4,24.5,9.7,24,9.7z"/>
	</g>
	<g>
		<path class="st0" d="M13.4,14.2c-0.2,0-0.5-0.1-0.6-0.2L8.3,9.4c-0.3-0.3-0.3-0.9,0-1.3c0.3-0.3,0.9-0.3,1.3,0l4.6,4.6
			c0.3,0.3,0.3,0.9,0,1.3C13.7,14.1,13.6,14.2,13.4,14.2z"/>
	</g>
	<g>
		<path class="st0" d="M8.9,24.9H2.4c-0.5,0-0.9-0.3-0.9-0.9s0.3-0.9,0.9-0.9h6.5c0.5,0,0.9,0.3,0.9,0.9S9.4,24.9,8.9,24.9z"/>
	</g>
	<g>
		<path class="st0" d="M8.7,40.1c-0.2,0-0.5-0.1-0.6-0.2c-0.3-0.3-0.3-0.9,0-1.3l4.6-4.6c0.3-0.3,0.9-0.3,1.3,0
			c0.3,0.3,0.3,0.9,0,1.3l-4.6,4.6C9.2,40,8.9,40.1,8.7,40.1z"/>
	</g>
	<g>
		<path class="st0" d="M24,46.5c-0.5,0-0.9-0.3-0.9-0.9v-6.5c0-0.5,0.3-0.9,0.9-0.9s0.9,0.3,0.9,0.9v6.5C24.9,46,24.5,46.5,24,46.5z
			"/>
	</g>
	<g>
		<path class="st0" d="M39.3,40.1c-0.2,0-0.5-0.1-0.6-0.2l-4.6-4.6c-0.3-0.3-0.3-0.9,0-1.3s0.9-0.3,1.3,0l4.6,4.6
			c0.3,0.3,0.3,0.9,0,1.3C39.7,40,39.5,40.1,39.3,40.1z"/>
	</g>
	<g>
		<path class="st0" d="M45.6,24.9h-6.5c-0.5,0-0.9-0.3-0.9-0.9s0.3-0.9,0.9-0.9h6.5c0.5,0,0.9,0.3,0.9,0.9S46,24.9,45.6,24.9z"/>
	</g>
	<g>
		<path class="st0" d="M34.6,14.2c-0.2,0-0.5-0.1-0.6-0.2c-0.3-0.3-0.3-0.9,0-1.3l4.6-4.6c0.3-0.3,0.9-0.3,1.3,0
			c0.3,0.3,0.3,0.9,0,1.3L35.3,14C35.1,14.1,34.8,14.2,34.6,14.2z"/>
	</g>
	<g>
		<path class="st0" d="M24,37.4c-7.4,0-13.4-6-13.4-13.4S16.6,10.6,24,10.6S37.4,16.6,37.4,24S31.4,37.4,24,37.4z M24,12.4
			c-6.4,0-11.6,5.2-11.6,11.6S17.6,35.6,24,35.6S35.6,30.4,35.6,24S30.4,12.4,24,12.4z"/>
	</g>
</g>
</svg>
