<?xml version="1.0" encoding="utf-8"?>
<!-- Generator: Adobe Illustrator 23.1.0, SVG Export Plug-In . SVG Version: 6.00 Build 0)  -->
<svg version="1.1" id="Layer_1" xmlns="http://www.w3.org/2000/svg" xmlns:xlink="http://www.w3.org/1999/xlink" x="0px" y="0px"
	 viewBox="0 0 48 48" style="enable-background:new 0 0 48 48;" xml:space="preserve">
<style type="text/css">
	.st0{fill:#231F20;}
</style>
<path class="st0" d="M41.2,30.5C41.2,30.5,41.1,30.5,41.2,30.5c-0.9,0-1.8,0.2-2.6,0.6c-1-1.2-2.3-2.1-3.9-2.6
	c2.5-7.8,0.1-16.7-6.7-22.3l-1.2-1l-0.2,1.6c0,0.1-0.9,6.7-4.5,13.3c-1.3-1.2-3.1-1.9-5-1.9l0,0c-2.2,0-4.2,1-5.7,2.7
	c-0.6-0.1-1.1-0.2-1.7-0.2l0,0c-3.3,0-6.1,2.8-6.1,6.1s2.7,6,6,6.1c-4.1,2.2-7.6,3.3-7.6,3.3l-1.5,0.4l1.2,1
	c3.9,3.2,8.6,4.9,13.5,4.9c0.6,0,1.1,0,1.7-0.1c1.6-0.1,3.1-0.4,4.6-0.9c1,0.8,2.2,1.2,3.6,1.2l0,0l16.1-0.1c3.3,0,6.1-2.8,6.1-6.1
	C47.3,33.2,44.6,30.5,41.2,30.5z M9.8,31L9.8,31c-2.5,0-4.5-2-4.5-4.5s2-4.5,4.5-4.5l0,0c0.6,0,1.1,0.1,1.7,0.3
	c0.1,0.1,2.1,1,1.7,2.6c-0.1,0.4,0.1,0.9,0.6,1c0.1,0,0.2,0,0.2,0c0.3,0,0.7-0.2,0.8-0.6c0.6-1.8-0.6-3.2-1.7-4
	c1.1-1.1,2.6-1.8,4.1-1.8s3.1,0.7,4.2,1.7c-0.8,1.3-1.7,2.7-2.7,3.8c-2,2.3-4.2,4.2-6.5,5.8L9.8,31z M16.8,40.8
	c-4.6,0.3-9.2-0.9-12.8-3.6C7.1,36,14.6,32.5,20,26.1c5.4-6.5,7.4-14.5,8-17.7c5.6,5.5,7.4,13.5,4.8,20.4c-0.2,0.4-0.3,0.9-0.6,1.3
	c0,0.1-0.1,0.1-0.1,0.2c-0.2,0.4-0.3,0.8-0.6,1.1c-0.1,0.2-0.2,0.3-0.3,0.6c-0.2,0.3-0.3,0.6-0.6,0.9c-0.3,0.4-0.6,0.8-0.9,1.2
	c0,0,0,0.1-0.1,0.1l0,0c-0.3,0.4-0.7,0.8-1,1.1c-0.1,0.1-0.3,0.2-0.4,0.4c-0.2,0.2-0.4,0.4-0.7,0.7c-0.4,0.3-0.9,0.7-1.3,1
	c-0.1,0-0.1,0.1-0.2,0.1c-1.3,0.9-2.9,1.7-4.5,2.2l-0.9,0.3C19.4,40.6,18.1,40.8,16.8,40.8z M41.2,41l-16.1,0.1
	c-0.4,0-1-0.1-1.6-0.2c0.7-0.3,1.3-0.7,2-1l0,0c0.7-0.3,1.2-0.8,1.8-1.2c0.1,0,0.1-0.1,0.2-0.1c0.6-0.4,1-0.8,1.5-1.2
	c0.1-0.1,0.2-0.1,0.2-0.2c0.6-0.4,1-1,1.5-1.6c0,0,0,0,0-0.1c0.3-0.4,0.8-1,1.1-1.5c0.1-0.2,0.2-0.4,0.4-0.7
	c0.2-0.2,0.3-0.6,0.6-0.9c0.1-0.3,0.3-0.6,0.4-0.9c0.1-0.1,0.1-0.2,0.2-0.3c0.2-0.3,0.3-0.8,0.6-1.1c1.5,0.3,2.7,1.3,3.5,2.6
	l0.4,0.7l0.7-0.4c0.7-0.4,1.6-0.7,2.3-0.7l0,0c2.5,0,4.5,2,4.5,4.5C45.7,39,43.7,41,41.2,41z"/>
</svg>
