<?xml version="1.0" encoding="utf-8"?>
<!-- Generator: Adobe Illustrator 23.0.6, SVG Export Plug-In . SVG Version: 6.00 Build 0)  -->
<svg version="1.1" id="Layer_1" xmlns="http://www.w3.org/2000/svg" xmlns:xlink="http://www.w3.org/1999/xlink" x="0px" y="0px"
	 viewBox="0 0 24 24" style="enable-background:new 0 0 24 24;" xml:space="preserve">
<g>
	<path d="M13.4,12L12,12.7l-1.4-0.8c-0.3-0.2-0.8-0.1-1,0.3c-0.2,0.3-0.1,0.8,0.3,1l1.4,0.8l0,1.6c0,0.2,0.1,0.4,0.2,0.5
		c0.1,0.1,0.3,0.2,0.5,0.2c0.4,0,0.7-0.3,0.7-0.7l0-1.6l1.4-0.8c0.3-0.2,0.5-0.6,0.3-1C14.2,11.9,13.7,11.8,13.4,12z"/>
	<path d="M10.3,4.6c0.1,0,0.3,0,0.4-0.1l0.6-0.4l0,0.8c0,0.2,0.1,0.4,0.2,0.5c0.1,0.1,0.3,0.2,0.5,0.2c0.4,0,0.7-0.3,0.7-0.7l0-0.8
		l0.7,0.4c0.1,0.1,0.2,0.1,0.4,0.1c0.3,0,0.5-0.1,0.6-0.4c0.2-0.3,0.1-0.8-0.3-1l-1.7-1c0,0,0,0,0,0c0,0,0,0,0,0c0,0,0,0,0,0
		c0,0,0,0,0,0c0,0,0,0,0,0c0,0,0,0,0,0c0,0,0,0,0,0c0,0,0,0,0,0c0,0,0,0,0,0c0,0,0,0,0,0c0,0,0,0,0,0c0,0,0,0,0,0c0,0,0,0,0,0
		c0,0,0,0,0,0c0,0,0,0,0,0c0,0,0,0,0,0c0,0,0,0,0,0c0,0,0,0,0,0c0,0,0,0,0,0c0,0,0,0,0,0c0,0,0,0,0,0c0,0,0,0,0,0l-1.7,1
		c-0.3,0.2-0.5,0.6-0.3,1C9.8,4.4,10,4.6,10.3,4.6z"/>
	<path d="M13.4,19.5l-0.7,0.4l0-0.8c0-0.4-0.3-0.7-0.7-0.7c-0.2,0-0.4,0.1-0.5,0.2c-0.1,0.1-0.2,0.3-0.2,0.5l0,0.8l-0.6-0.4
		c-0.3-0.2-0.8-0.1-1,0.3c-0.1,0.2-0.1,0.4-0.1,0.6c0,0.2,0.2,0.3,0.3,0.4l1.7,1l0,0l0,0c0,0,0,0,0,0c0,0,0,0,0,0c0,0,0,0,0,0
		c0.1,0,0.1,0,0.2,0l0,0c0,0,0,0,0,0h0l0,0c0.1,0,0.1,0,0.2,0c0,0,0,0,0,0l0,0c0,0,0,0,0,0c0,0,0,0,0,0l1.8-1c0.3-0.2,0.5-0.6,0.3-1
		C14.2,19.4,13.7,19.3,13.4,19.5z"/>
	<path d="M18.1,7.8l0.7,0.4l-0.7,0.4c-0.3,0.2-0.5,0.6-0.3,1c0.1,0.2,0.4,0.4,0.6,0.4c0.1,0,0.3,0,0.4-0.1l0.6-0.4l0,0.7
		c0,0.4,0.3,0.7,0.7,0.7c0.4,0,0.7-0.3,0.7-0.7l0-2c0,0,0,0,0,0c0,0,0,0,0,0c0-0.3-0.1-0.6-0.4-0.7l-1.7-1c-0.2-0.1-0.4-0.1-0.6-0.1
		c-0.2,0.1-0.3,0.2-0.4,0.3c-0.1,0.2-0.1,0.4-0.1,0.6C17.8,7.5,17.9,7.7,18.1,7.8z"/>
	<path d="M5.2,6.5l-1.7,1C3.2,7.6,3.1,7.9,3.1,8.2c0,0,0,0,0,0c0,0,0,0,0,0l0,2c0,0.4,0.3,0.7,0.7,0.7c0.2,0,0.4-0.1,0.5-0.2
		c0.1-0.1,0.2-0.3,0.2-0.5l0-0.7l0.6,0.4c0.1,0.1,0.2,0.1,0.4,0.1c0.3,0,0.5-0.1,0.6-0.4C6.3,9.4,6.3,9.2,6.3,9
		c0-0.2-0.2-0.3-0.3-0.4L5.2,8.2l0.7-0.4c0.3-0.2,0.5-0.6,0.3-1C6,6.4,5.6,6.3,5.2,6.5z"/>
	<path d="M20.9,15.8C20.9,15.8,20.9,15.7,20.9,15.8l0-2c0-0.4-0.3-0.7-0.7-0.7c-0.4,0-0.7,0.3-0.7,0.7l0,0.7l-0.6-0.4
		c-0.3-0.2-0.8-0.1-1,0.3c-0.2,0.3-0.1,0.8,0.3,1l0.7,0.4l-0.7,0.4c-0.2,0.1-0.3,0.3-0.3,0.4c-0.1,0.2,0,0.4,0.1,0.6
		c0.1,0.2,0.4,0.4,0.6,0.4c0.1,0,0.2,0,0.4-0.1l1.7-1C20.8,16.3,20.9,16,20.9,15.8C20.9,15.8,20.9,15.8,20.9,15.8z"/>
	<path d="M5.9,16.2l-0.7-0.4l0.7-0.4c0.3-0.2,0.5-0.6,0.3-1c-0.2-0.3-0.6-0.5-1-0.3l-0.6,0.4l0-0.7c0-0.4-0.3-0.7-0.7-0.7
		c-0.4,0-0.7,0.3-0.7,0.7l0,2c0,0,0,0,0,0c0,0,0,0,0,0c0,0.3,0.1,0.6,0.4,0.7l1.7,1c0.1,0.1,0.2,0.1,0.4,0.1c0.3,0,0.5-0.1,0.6-0.4
		C6.4,16.8,6.3,16.4,5.9,16.2z"/>
</g>
</svg>
