<svg
    xmlns="http://www.w3.org/2000/svg"
    viewBox="0 0 48 48"
    id="vector">
    <path
        id="path"
        d="M 45.2 13.7 L 45.2 13.7 L 45.2 9.4 C 45.2 7 43.2 5 40.8 5 L 38.8 5 L 38.8 1.2 C 38.8 1 38.6 0.8 38.4 0.8 L 35 0.8 C 34.8 0.8 34.6 1 34.6 1.2 L 34.6 5 L 13.6 5 L 13.6 1.2 C 13.6 1 13.4 0.8 13.2 0.8 L 9.5 0.8 C 9.4 0.7 9.2 1 9.2 1.2 L 9.2 5 L 7.3 5 C 4.9 5 2.9 7 2.9 9.4 L 2.9 13.7 L 2.9 13.7 L 2.9 15.9 L 2.9 15.9 L 2.9 42.8 C 2.9 45.2 4.9 47.2 7.3 47.2 L 40.8 47.2 C 43.2 47.2 45.2 45.2 45.2 42.8 L 45.2 15.9 L 45.2 15.9 L 45.2 13.7 Z M 5.2 9.4 C 5.2 8.2 6.2 7.2 7.4 7.2 L 40.9 7.2 C 42.1 7.2 43.1 8.2 43.1 9.4 L 43.1 13.7 L 5.2 13.7 L 5.2 9.4 Z M 42.9 42.8 C 42.9 44 41.9 45 40.7 45 L 7.3 45 C 6.1 45 5.1 44 5.1 42.8 L 5.1 15.9 L 43 15.9 L 43 42.8 Z"
        fill="#000000"/>
    <path
        id="path_13"
        d="M 17.2 40.3 L 23.8 33.7 L 30.3 40.3 L 33.4 37.1 L 26.9 30.5 L 33.4 24 L 30.3 20.9 L 23.8 27.4 L 17.2 20.9 L 14.1 24 L 20.7 30.5 L 14.1 37.1 Z"
        fill="#000000"/>
</svg>
