<svg
    xmlns="http://www.w3.org/2000/svg"
    viewBox="0 0 48 48"
    id="vector">
    <path
        id="path_1"
        d="M 36.4 44.7 L 11.4 44.7 C 10.9 44.7 10.4 44.3 10.4 43.7 L 10.4 23.8 C 10.3 24.1 9.9 24.3 9.6 24.3 L 1.6 24.3 C 1.3 24.3 1 24.2 0.8 23.9 C 0.5 23.5 0.5 23.1 0.7 22.9 L 7.2 7 C 7.2 6.9 7.3 6.7 7.5 6.7 L 10.6 3.6 C 10.7 3.5 11 3.3 11.2 3.3 L 16.8 3.3 C 17.3 3.3 17.8 3.7 17.8 4.3 C 17.8 6.2 20.5 7.9 23.8 7.9 C 27.1 7.9 29.9 6.2 29.9 4.3 C 29.9 3.8 30.3 3.3 30.9 3.3 L 36.5 3.3 C 36.8 3.3 37 3.4 37.1 3.6 L 40.2 6.7 C 40.3 6.8 40.3 6.8 40.5 7 L 47.4 22.8 C 47.5 23.1 47.5 23.4 47.3 23.7 C 47.2 24 46.8 24.1 46.5 24.1 L 38.3 24.1 C 37.9 24.1 37.7 24 37.4 23.6 L 37.4 43.7 C 37.3 44.3 36.9 44.7 36.4 44.7 Z M 12.3 42.7 L 35.3 42.7 L 35.3 19.9 C 35.3 19.5 35.6 19.1 36.1 19 C 36.5 18.9 37 19.1 37.1 19.5 L 38.7 22.2 L 44.7 22.2 L 38.5 8 L 35.8 5.3 L 31.5 5.3 C 30.9 7.9 27.6 9.8 23.6 9.8 C 19.7 9.8 16.5 7.9 15.7 5.3 L 11.4 5.3 L 8.7 8 L 3 22.3 L 9 22.3 L 10.6 19.6 C 10.9 19.2 11.2 19.1 11.6 19.1 C 12 19.2 12.4 19.6 12.4 20 L 12.4 42.7 Z"
        fill="#000000"/>
</svg>
