<svg
    xmlns="http://www.w3.org/2000/svg"
    viewBox="0 0 500 500"
    id="vector">
    <path
        id="path_1"
        d="M 137.9 41.7 C 213.2 45.4 277.7 112.1 281.9 190.6 C 286.1 269.1 167.4 465.3 161.1 475.6 C 153.7 464.6 13.3 255.5 9.1 177 C 4.9 98.6 62.6 38 137.9 41.7 Z"
        fill="#ff7e5f"/>
    <path
        id="path_2"
        d="M 307.2 178.8 C 307.2 178.6 307.2 178.4 307.2 178.2 C 307.2 177 307.2 175.9 307.1 174.8 C 307.1 174.5 307.1 174.2 307.1 174 C 307.1 173.8 307.1 173.7 307.1 173.5 C 307 171 306.8 168.5 306.5 166 C 306.5 165.9 306.5 165.9 306.5 165.8 C 306.5 165.4 306.4 165.1 306.4 164.7 C 306.1 162.4 305.8 160.1 305.5 157.8 C 305.5 157.5 305.4 157.2 305.4 156.9 C 305.1 155.2 304.8 153.6 304.5 151.9 C 304.5 151.7 304.4 151.4 304.3 151.2 C 304.1 150 303.8 148.8 303.5 147.6 C 303.4 147 303.2 146.4 303 145.7 C 302.9 145.1 302.7 144.5 302.5 143.9 C 302 142.1 301.5 140.2 301 138.4 C 300.9 138.1 300.9 137.9 300.8 137.6 C 300.8 137.5 300.8 137.5 300.7 137.4 C 300.1 135.3 299.4 133.2 298.7 131.2 C 298.5 130.6 298.3 130.1 298.1 129.5 C 297.6 128.2 297.2 127 296.7 125.7 C 296.6 125.5 296.5 125.2 296.4 125 C 295.7 123.2 294.9 121.3 294.1 119.5 C 293.9 118.9 293.6 118.4 293.4 117.8 C 292.3 115.5 291.2 113.1 290.1 110.8 C 290.1 110.7 290 110.6 290 110.5 C 289.7 109.8 289.3 109.2 288.9 108.5 C 288.1 107.1 287.4 105.6 286.6 104.2 C 286.1 103.3 285.6 102.5 285.1 101.7 C 284.4 100.4 283.6 99.2 282.8 97.9 C 282.2 97 281.7 96.1 281.1 95.3 C 280.3 94.1 279.6 92.9 278.8 91.8 C 278.2 90.9 277.6 90 276.9 89.2 C 276.1 88.1 275.3 87 274.4 85.9 C 273.7 85 273.1 84.2 272.4 83.3 C 271.6 82.2 270.7 81.2 269.8 80.1 C 269.1 79.3 268.4 78.4 267.7 77.6 C 266.8 76.6 265.9 75.6 265 74.5 C 264.3 73.7 263.5 72.9 262.8 72.1 C 261.9 71.1 260.9 70.1 259.9 69.2 C 259.1 68.4 258.4 67.7 257.6 66.9 C 256.6 65.9 255.6 65 254.6 64.1 C 254.1 63.6 253.5 63.1 253 62.6 C 252.8 62.4 252.5 62.2 252.3 62 C 251 60.9 249.7 59.7 248.3 58.6 C 247.7 58.1 247.1 57.6 246.4 57.1 C 244.4 55.5 242.4 54 240.4 52.5 C 240.4 52.5 240.4 52.5 240.4 52.5 C 238.6 51.2 236.8 50 235 48.8 C 234.4 48.4 233.8 48 233.2 47.7 C 232.2 47 231.1 46.4 230.1 45.7 C 229.8 45.5 229.6 45.4 229.3 45.3 C 228.8 45 228.3 44.7 227.8 44.4 C 226.5 43.6 225.1 42.9 223.8 42.1 C 223.2 41.8 222.7 41.5 222.1 41.2 C 221.7 41 221.4 40.8 221 40.6 C 219.6 39.9 218.1 39.1 216.7 38.4 C 216.6 38.3 216.4 38.3 216.3 38.2 C 215.1 37.6 213.8 37 212.6 36.5 C 212.3 36.4 212 36.2 211.6 36.1 C 209.7 35.3 207.7 34.5 205.7 33.7 C 205.3 33.5 204.9 33.3 204.4 33.2 C 204.3 33.2 204.2 33.1 204.1 33.1 C 201.7 32.2 199.3 31.4 196.8 30.6 C 196.7 30.6 196.6 30.5 196.5 30.5 C 195.9 30.3 195.4 30.2 194.8 30 C 193.1 29.5 191.3 29 189.6 28.6 C 189.4 28.5 189.1 28.5 188.9 28.4 C 188.2 28.2 187.5 28.1 186.9 28 C 185.4 27.7 183.9 27.3 182.4 27 C 182 26.9 181.6 26.8 181.3 26.8 C 180.7 26.7 180 26.6 179.4 26.5 C 178 26.2 176.5 26 175.1 25.8 C 174.6 25.7 174.1 25.6 173.6 25.6 C 173.1 25.5 172.5 25.5 172 25.4 C 170.5 25.2 169 25.1 167.5 25 C 166.9 24.9 166.3 24.9 165.7 24.8 C 164.8 24.7 163.9 24.7 163 24.6 C 161.2 24.5 159.4 24.5 157.6 24.4 C 157.6 24.4 157.5 24.4 157.5 24.4 C 155.9 24.4 154.4 24.4 152.8 24.4 C 152.3 24.4 151.9 24.4 151.4 24.5 C 150.7 24.5 149.9 24.5 149.2 24.6 C 148.8 24.6 148.5 24.7 148.1 24.7 C 147.5 24.7 146.9 24.8 146.3 24.8 C 145.3 24.9 144.3 25 143.3 25.1 C 142.7 25.2 142.1 25.2 141.5 25.3 C 141.2 25.3 140.9 25.4 140.6 25.4 C 140 25.5 139.4 25.6 138.8 25.7 C 138.1 25.8 137.3 25.9 136.6 26 C 135.7 26.1 134.8 26.3 133.9 26.5 C 133.2 26.6 132.5 26.7 131.8 26.9 C 131.6 26.9 131.4 27 131.2 27 C 130.7 27.1 130.2 27.2 129.6 27.4 C 128.6 27.6 127.6 27.8 126.6 28.1 C 125.9 28.3 125.2 28.5 124.5 28.7 C 123.5 29 122.6 29.2 121.7 29.5 C 121.4 29.6 121.1 29.7 120.8 29.7 C 120.5 29.8 120.2 29.9 119.9 30 C 118.3 30.5 116.7 31 115.2 31.6 C 114.8 31.7 114.4 31.9 114 32 C 112.1 32.7 110.2 33.4 108.4 34.2 C 108.3 34.3 108.1 34.3 108 34.4 C 107.6 34.6 107.2 34.8 106.8 34.9 C 105.7 35.4 104.6 35.9 103.6 36.4 C 103 36.7 102.4 37 101.8 37.3 C 100.8 37.8 99.8 38.3 98.8 38.9 C 98.2 39.2 97.6 39.5 97.1 39.8 C 96 40.4 95 41 94 41.6 C 93.5 41.9 93 42.2 92.5 42.5 C 91 43.4 89.5 44.4 88.1 45.4 L 62.8 62.3 C 64.2 61.3 65.7 60.4 67.2 59.4 C 67.7 59.1 68.2 58.8 68.7 58.5 C 69.7 57.9 70.8 57.3 71.8 56.7 C 72.4 56.4 73 56.1 73.5 55.8 C 74.5 55.3 75.5 54.7 76.5 54.2 C 77.1 53.9 77.7 53.6 78.3 53.3 C 79.4 52.8 80.5 52.3 81.5 51.8 C 82 51.6 82.6 51.3 83.1 51.1 C 85 50.3 86.8 49.6 88.7 48.9 C 89.1 48.8 89.5 48.6 89.9 48.5 C 91.5 47.9 93.1 47.4 94.7 46.9 C 95.3 46.7 95.9 46.5 96.5 46.4 C 97.4 46.1 98.4 45.9 99.3 45.6 C 100 45.4 100.7 45.2 101.4 45 C 102.4 44.8 103.4 44.5 104.4 44.3 C 105.1 44.1 105.8 44 106.5 43.8 C 107.2 43.7 107.9 43.5 108.6 43.4 C 109.5 43.2 110.4 43.1 111.3 42.9 C 112 42.8 112.7 42.7 113.5 42.6 C 114.4 42.5 115.3 42.3 116.3 42.2 C 116.9 42.1 117.5 42.1 118.1 42 C 119.1 41.9 120.1 41.8 121.1 41.7 C 121.7 41.7 122.3 41.6 122.9 41.6 C 124 41.5 125.1 41.5 126.2 41.4 C 126.7 41.4 127.1 41.4 127.6 41.3 C 129.2 41.3 130.8 41.2 132.4 41.3 C 134.2 41.3 136 41.4 137.8 41.5 C 139.3 41.6 140.9 41.7 142.4 41.8 C 143.9 41.9 145.4 42.1 146.9 42.2 C 147.9 42.3 149 42.5 150 42.6 C 151.5 42.8 152.9 43 154.3 43.3 C 155.3 43.5 156.3 43.6 157.3 43.8 C 158.8 44.1 160.3 44.4 161.8 44.8 C 162.7 45 163.6 45.2 164.6 45.4 C 166.4 45.8 168.1 46.3 169.8 46.8 C 170.5 47 171.1 47.2 171.8 47.4 C 174.2 48.2 176.7 49 179.1 49.9 C 179.6 50.1 180.1 50.3 180.6 50.5 C 182.6 51.3 184.5 52.1 186.5 52.9 C 188.1 53.6 189.6 54.3 191.2 55 C 191.3 55.1 191.5 55.1 191.6 55.2 C 193.4 56.1 195.2 57 197 57.9 C 197.6 58.2 198.1 58.5 198.7 58.8 C 200.1 59.5 201.4 60.3 202.7 61.1 C 203.2 61.4 203.7 61.7 204.2 62 C 205.5 62.8 206.8 63.6 208.1 64.4 C 208.7 64.8 209.3 65.1 209.9 65.5 C 211.7 66.7 213.5 68 215.3 69.3 C 217.3 70.8 219.3 72.3 221.3 73.9 C 221.9 74.4 222.5 74.9 223.2 75.4 C 224.5 76.5 225.9 77.6 227.2 78.8 C 228 79.5 228.7 80.2 229.5 80.9 C 230.5 81.8 231.5 82.8 232.5 83.7 C 233.3 84.4 234 85.2 234.8 86 C 235.8 87 236.7 87.9 237.7 88.9 C 238.4 89.7 239.2 90.5 239.9 91.3 C 240.8 92.3 241.7 93.3 242.6 94.4 C 243.3 95.2 244 96.1 244.7 96.9 C 245.6 97.9 246.4 99 247.3 100.1 C 248 101 248.6 101.8 249.3 102.7 C 250.1 103.8 250.9 104.9 251.8 106 C 252.4 106.9 253.1 107.7 253.7 108.6 C 254.5 109.8 255.3 110.9 256.1 112.1 C 256.7 113 257.2 113.8 257.8 114.7 C 258.6 116 259.3 117.2 260.1 118.5 C 260.6 119.3 261.1 120.2 261.6 121 C 262.4 122.4 263.2 123.9 263.9 125.3 C 264.3 126 264.7 126.8 265.1 127.5 C 266.3 129.8 267.4 132.1 268.4 134.5 C 268.6 135.1 268.9 135.6 269.1 136.2 C 269.9 138 270.7 139.8 271.4 141.7 C 272 143.2 272.5 144.7 273.1 146.1 C 273.3 146.7 273.5 147.2 273.7 147.8 C 274.4 149.9 275.1 152.1 275.8 154.2 C 275.9 154.4 275.9 154.7 276 155 C 276.5 156.8 277 158.7 277.5 160.5 C 277.7 161.1 277.8 161.7 277.9 162.3 C 278.3 164.1 278.8 166 279.1 167.8 C 279.1 168 279.2 168.3 279.3 168.5 C 279.7 170.4 280 172.4 280.3 174.3 C 280.7 176.6 281 178.9 281.2 181.2 C 281.2 181.6 281.3 182.1 281.4 182.5 C 281.7 185 281.9 187.5 282 190 C 282 190.4 282 190.9 282 191.3 C 282 192.4 282.1 193.6 282.1 194.7 C 282.1 195.2 282.1 195.7 282.1 196.2 C 282.1 197.3 282 198.4 282 199.5 C 282 200 282 200.4 281.9 200.9 C 281.8 202.9 281.6 204.9 281.3 207 C 281.2 207.7 281.1 208.4 281 209.1 C 280.9 209.7 280.8 210.4 280.7 211 C 280.6 211.8 280.4 212.7 280.3 213.5 C 280.2 214.1 280.1 214.8 280 215.4 C 279.9 215.9 279.8 216.5 279.7 217 C 279.4 218.4 279.2 219.8 278.9 221.2 C 278.8 221.8 278.6 222.4 278.5 223 C 278.2 224.5 277.8 226 277.5 227.5 C 277.4 227.9 277.3 228.3 277.2 228.7 C 276.6 231.2 275.9 233.8 275.2 236.5 C 275.1 237 274.9 237.4 274.8 237.9 C 274.1 240.5 273.3 243.1 272.5 245.8 C 272.3 246.4 272.1 247 272 247.5 C 271.5 249.1 271 250.8 270.4 252.5 C 270.2 253.1 270 253.7 269.8 254.3 C 269.1 256.5 268.3 258.7 267.6 260.9 C 267.5 261.2 267.4 261.6 267.2 261.9 C 266.5 263.8 265.8 265.8 265.1 267.7 C 264.9 268.4 264.6 269.1 264.3 269.8 C 263.6 271.6 263 273.3 262.3 275.1 C 262.1 275.6 261.9 276.1 261.7 276.6 C 260 281 258.3 285.3 256.5 289.8 C 256.4 290.1 256.3 290.4 256.1 290.7 C 254.4 295 252.6 299.2 250.7 303.5 C 250.5 303.9 250.4 304.2 250.2 304.6 C 248.3 309.1 246.3 313.6 244.3 318.1 C 244.2 318.2 244.2 318.4 244.1 318.5 C 242.1 322.9 240.1 327.3 238 331.7 C 237.8 332.2 237.5 332.7 237.3 333.3 C 236.1 335.9 234.8 338.5 233.6 341.1 C 233.5 341.3 233.4 341.4 233.4 341.6 C 232.2 344.1 231 346.6 229.8 349 C 229.5 349.6 229.2 350.2 228.9 350.8 C 227.6 353.4 226.4 355.9 225.1 358.5 C 224.9 358.8 224.8 359.2 224.6 359.5 C 223.4 361.8 222.3 364.1 221.1 366.4 C 220.8 366.9 220.6 367.5 220.3 368 C 219 370.5 217.8 373 216.5 375.4 C 216.3 375.8 216 376.3 215.8 376.7 C 214.7 378.9 213.6 381 212.5 383.1 C 212.2 383.6 212 384.1 211.7 384.5 C 210.5 386.9 209.2 389.3 208 391.6 C 207.7 392.1 207.5 392.6 207.2 393.1 C 206.1 395.2 205 397.2 203.9 399.3 C 203.7 399.7 203.5 400 203.3 400.4 C 202.1 402.7 200.9 404.9 199.7 407.1 C 199.4 407.6 199.2 408.1 198.9 408.6 C 197.8 410.6 196.7 412.6 195.7 414.5 C 195.6 414.7 195.4 415 195.3 415.2 C 194.1 417.3 193 419.4 191.9 421.4 C 191.6 421.9 191.4 422.4 191.1 422.8 C 190 424.8 188.9 426.8 187.8 428.7 C 187.8 428.7 187.8 428.7 187.8 428.8 C 186.7 430.8 185.6 432.6 184.6 434.5 C 184.4 434.9 184.1 435.4 183.9 435.8 C 182.9 437.6 181.9 439.4 180.9 441.1 C 180.8 441.2 180.8 441.4 180.7 441.5 C 179.8 443.1 178.9 444.7 178 446.2 C 177.8 446.6 177.6 446.9 177.4 447.3 C 176.5 448.9 175.6 450.4 174.8 451.8 C 174.3 452.7 173.7 453.7 173.2 454.5 C 173.1 454.7 173 454.9 172.9 455 C 172.5 455.7 172.1 456.4 171.7 457.1 C 171.5 457.4 171.4 457.6 171.2 457.9 C 170.8 458.6 170.4 459.2 170 459.9 C 169.9 460.1 169.8 460.3 169.7 460.5 C 169.2 461.3 168.8 462.1 168.3 462.8 C 168.3 462.9 168.2 463 168.2 463 C 167.8 463.7 167.4 464.3 167.1 464.9 C 167 465.1 166.9 465.2 166.8 465.4 C 166.4 466 166.1 466.6 165.7 467.2 C 165.7 467.2 165.7 467.3 165.7 467.3 C 165.3 467.9 165 468.5 164.6 469.1 C 164.6 469.2 164.5 469.2 164.5 469.3 C 164.2 469.8 164 470.2 163.7 470.6 C 163.6 470.7 163.6 470.8 163.5 470.9 C 162.3 472.8 161.6 474.1 161.2 474.8 L 161.2 474.8 L 161.2 474.8 L 186.4 457.6 C 186.6 457.3 186.9 456.8 187.3 456.2 C 187.3 456.2 187.3 456.1 187.3 456.1 C 187.7 455.5 188.1 454.7 188.7 453.8 C 188.8 453.6 188.9 453.5 189 453.3 C 189.2 453 189.4 452.6 189.6 452.3 C 189.7 452.2 189.8 452 189.8 451.9 C 190.1 451.4 190.5 450.8 190.8 450.2 C 190.8 450.1 190.9 450.1 190.9 450 C 191.2 449.4 191.6 448.8 192 448.2 C 192.1 448.1 192.1 448 192.2 447.8 C 192.6 447.2 193 446.5 193.4 445.8 C 193.4 445.7 193.5 445.6 193.5 445.6 C 193.9 444.8 194.4 444.1 194.9 443.2 C 195 443.1 195.1 442.9 195.2 442.8 C 195.6 442.1 196 441.4 196.4 440.7 C 196.5 440.5 196.7 440.2 196.8 440 C 197.2 439.2 197.7 438.5 198.2 437.7 C 198.3 437.6 198.3 437.5 198.4 437.4 C 198.9 436.6 199.4 435.7 199.9 434.8 C 199.9 434.7 200 434.6 200 434.6 C 200.8 433.2 201.7 431.7 202.6 430.2 C 202.8 429.8 203 429.4 203.3 429 C 204.1 427.5 205 426.1 205.9 424.5 C 206 424.3 206.1 424.1 206.2 423.9 C 207.2 422.2 208.1 420.5 209.1 418.7 C 209.4 418.2 209.6 417.8 209.9 417.3 C 210.9 415.5 212 413.6 213 411.7 C 213.1 411.6 213.1 411.5 213.2 411.4 C 214.2 409.5 215.3 407.6 216.4 405.7 C 216.7 405.2 217 404.7 217.3 404.2 C 218.4 402.2 219.6 400.1 220.7 398 C 220.8 397.8 221 397.5 221.1 397.2 C 222.2 395.3 223.2 393.3 224.3 391.4 C 224.6 390.9 224.9 390.4 225.2 389.8 C 226.4 387.6 227.6 385.4 228.8 383.1 C 229 382.7 229.2 382.3 229.4 381.9 C 230.5 379.9 231.5 377.9 232.6 375.8 C 232.9 375.3 233.1 374.8 233.4 374.2 C 234.6 371.9 235.9 369.6 237.1 367.2 C 237.4 366.7 237.6 366.2 237.9 365.7 C 239 363.6 240.1 361.5 241.2 359.4 C 241.4 358.9 241.7 358.5 241.9 358 C 243.2 355.6 244.4 353.1 245.7 350.6 C 246 350 246.3 349.5 246.6 348.9 C 247.7 346.6 248.9 344.4 250 342.1 C 250.2 341.7 250.4 341.4 250.5 341 C 251.8 338.5 253 335.9 254.3 333.4 C 254.6 332.8 254.9 332.2 255.2 331.5 C 256.4 329 257.6 326.6 258.8 324.1 C 258.9 323.9 259 323.8 259 323.6 C 260.2 321 261.5 318.4 262.7 315.8 C 262.9 315.5 263 315.1 263.2 314.8 C 263.3 314.6 263.4 314.4 263.5 314.2 C 265.6 309.8 267.6 305.4 269.6 301 C 269.7 300.9 269.7 300.7 269.8 300.6 C 271.8 296.1 273.8 291.6 275.7 287.2 C 275.9 286.8 276 286.4 276.2 286.1 C 278 281.8 279.8 277.5 281.6 273.3 C 281.7 273 281.9 272.7 282 272.4 C 283.8 268 285.5 263.6 287.2 259.2 C 287.2 259.1 287.3 259 287.3 258.9 C 287.4 258.5 287.6 258.1 287.7 257.7 C 288.4 255.9 289 254.1 289.7 252.3 C 290 251.6 290.2 250.9 290.4 250.3 C 291.1 248.4 291.8 246.4 292.5 244.5 C 292.6 244.2 292.7 243.8 292.9 243.5 C 293.7 241.3 294.4 239.1 295.1 236.9 C 295.3 236.3 295.5 235.7 295.7 235.1 C 296.2 233.4 296.8 231.8 297.3 230.1 C 297.4 229.7 297.5 229.3 297.7 229 C 297.8 228.8 297.8 228.6 297.9 228.4 C 298.7 225.7 299.5 223.1 300.2 220.5 C 300.3 220 300.5 219.6 300.6 219.1 C 301.3 216.5 302 213.9 302.6 211.3 C 302.6 211.2 302.6 211.1 302.7 211 C 302.8 210.7 302.8 210.4 302.9 210 C 303.3 208.5 303.6 207 303.9 205.5 C 304 204.9 304.2 204.3 304.3 203.7 C 304.6 202.3 304.9 200.9 305.1 199.5 C 305.2 199.1 305.2 198.8 305.3 198.4 C 305.3 198.2 305.4 198 305.4 197.9 C 305.5 197.3 305.6 196.6 305.7 196 C 305.8 195.2 306 194.3 306.1 193.5 C 306.2 192.9 306.3 192.2 306.4 191.6 C 306.5 191.1 306.6 190.5 306.6 190 C 306.6 189.8 306.6 189.7 306.6 189.5 C 306.8 187.4 307 185.4 307.2 183.4 C 307.2 183.3 307.2 183.1 307.2 183 C 307.2 182.7 307.2 182.4 307.2 182.1 C 307.3 181 307.3 179.9 307.3 178.8 C 307.2 179.4 307.2 179.1 307.2 178.8 Z"
        fill="#e87058"/>
    <path
        id="path_3"
        d="M 145.5 164.8 C 158.5 167.4 169 179.9 169 192.5 C 169 205.2 158.5 213.4 145.5 210.8 C 132.5 208.3 122 195.8 122 183.1 C 122 170.4 132.5 162.1 145.5 164.8 Z"
        fill="#ffffff"/>
    <path
        id="path_4"
        d="M 122.9 110.4 L 109.3 122.7 L 85.8 117.8 C 77.7 116.1 71.3 121 71.3 129.1 L 71.3 217.9 C 71.3 226 77.6 233.4 85.8 235 L 205.3 257.6 C 213.4 259.1 219.8 254.2 219.8 246.4 L 219.8 159.9 C 219.8 152 213.5 144.6 205.3 142.9 L 181.8 138 L 168.2 121 L 122.9 111.4 L 122.9 110.4 Z M 145.5 225 C 124.7 221 108.4 201.8 108.4 181.3 C 108.4 160.8 124.7 148.1 145.5 152.4 C 166.3 156.7 182.6 175.9 182.6 196.1 C 182.6 216.3 166.3 229 145.5 225 Z"
        fill="#ffffff"/>
</svg>
