<svg
    xmlns="http://www.w3.org/2000/svg"
    viewBox="0 0 48 48"
    id="vector">
    <path
        id="path_1"
        d="M 36.8 19.5 C 33.8 19.5 31.4 17.1 31.4 14.1 C 31.4 11.1 33.8 8.7 36.8 8.7 C 39.8 8.7 42.2 11.1 42.2 14.1 C 42.2 17.1 39.8 19.5 36.8 19.5 Z M 36.8 10.3 C 34.7 10.3 33.1 12 33.1 14 C 33.1 16 34.8 17.7 36.8 17.7 C 38.8 17.7 40.5 16 40.5 14 C 40.5 12 38.9 10.3 36.8 10.3 Z"
        fill="#000000"/>
    <path
        id="path_2"
        d="M 39.1 21.7 L 34.7 21.7 C 34.3 21.7 33.8 21.4 33.8 20.8 C 33.8 20.2 34.1 19.9 34.7 19.9 L 39.1 19.9 C 39.5 19.9 40 20.2 40 20.8 C 40 21.4 39.5 21.7 39.1 21.7 Z"
        fill="#000000"/>
    <path
        id="path_3"
        d="M 38.1 24.1 L 35.5 24.1 C 35.1 24.1 34.6 23.8 34.6 23.2 C 34.6 22.6 34.9 22.3 35.5 22.3 L 38.1 22.3 C 38.5 22.3 39 22.6 39 23.2 C 39 23.8 38.5 24.1 38.1 24.1 Z"
        fill="#000000"/>
    <path
        id="path_4"
        d="M 29.8 15 L 27 15 C 26.6 15 26.1 14.7 26.1 14.1 C 26.1 13.5 26.4 13.2 27 13.2 L 29.8 13.2 C 30.2 13.2 30.7 13.5 30.7 14.1 C 30.7 14.6 30.3 15 29.8 15 Z"
        fill="#000000"/>
    <path
        id="path_5"
        d="M 31.9 10 C 31.7 10 31.5 9.9 31.3 9.8 L 29.3 7.8 C 29 7.5 29 6.9 29.3 6.6 C 29.6 6.3 30.2 6.3 30.5 6.6 L 32.5 8.6 C 32.8 8.9 32.8 9.5 32.5 9.8 C 32.4 9.9 32.2 10 31.9 10 Z"
        fill="#000000"/>
    <path
        id="path_6"
        d="M 36.8 8 C 36.4 8 35.9 7.7 35.9 7.1 L 35.9 4.4 C 35.9 4 36.2 3.5 36.8 3.5 C 37.4 3.5 37.7 3.8 37.7 4.4 L 37.7 7.2 C 37.7 7.6 37.2 8 36.8 8 Z"
        fill="#000000"/>
    <path
        id="path_7"
        d="M 41.7 10 C 41.5 10 41.3 9.9 41.1 9.8 C 40.8 9.5 40.8 8.9 41.1 8.6 L 43.1 6.6 C 43.4 6.3 44 6.3 44.3 6.6 C 44.6 6.9 44.6 7.5 44.3 7.8 L 42.3 9.8 C 42.2 9.9 42 10 41.7 10 Z"
        fill="#000000"/>
    <path
        id="path_8"
        d="M 46.5 15 L 43.7 15 C 43.3 15 42.8 14.7 42.8 14.1 C 42.8 13.5 43.1 13.2 43.7 13.2 L 46.5 13.2 C 46.9 13.2 47.4 13.5 47.4 14.1 C 47.4 14.6 46.9 15 46.5 15 Z"
        fill="#000000"/>
    <path
        id="path_9"
        d="M 33.3 44.5 L 5.3 44.5 C 3.4 44.5 0.7 43.3 0.7 39.9 L 0.7 18.9 C 0.7 17 1.9 14.3 5.3 14.3 L 10.4 14.3 L 13.3 11.1 C 13.5 10.9 13.9 10.8 14.1 10.8 L 22.3 10.8 C 23 10.8 23.4 11.2 23.4 11.9 C 23.4 12.6 23 13 22.3 13 L 14.7 13 L 11.8 16.2 C 11.6 16.4 11.2 16.5 11 16.5 L 5.4 16.5 C 3.2 16.5 3 18.5 3 18.9 L 3 39.9 C 3 42.1 5 42.3 5.4 42.3 L 33.5 42.3 C 35.7 42.3 35.9 40.3 35.9 39.9 L 35.9 26.3 C 35.9 25.6 36.3 25.2 37 25.2 C 37.7 25.2 38.1 25.6 38.1 26.3 L 38.1 39.9 C 37.9 41.7 36.7 44.5 33.3 44.5 Z"
        fill="#000000"/>
    <path
        id="path_10"
        d="M 19.3 39.2 C 13.9 39.2 9.4 34.8 9.4 29.3 C 9.4 23.9 13.8 19.4 19.3 19.4 C 24.7 19.4 29.2 23.8 29.2 29.3 C 29.2 34.8 24.7 39.2 19.3 39.2 Z M 19.3 21.7 C 15.1 21.7 11.6 25.1 11.6 29.4 C 11.6 33.6 15 37.1 19.3 37.1 C 23.6 37.1 27 33.7 27 29.4 C 27 25.1 23.4 21.7 19.3 21.7 Z"
        fill="#000000"/>
</svg>
