<svg
    xmlns="http://www.w3.org/2000/svg"
    viewBox="0 0 48 48"
    id="vector">
    <path
        id="path"
        d="M 41.2 30.5 C 41.2 30.5 41.1 30.5 41.2 30.5 C 40.3 30.5 39.4 30.7 38.6 31.1 C 37.6 29.9 36.3 29 34.7 28.5 C 37.2 20.7 34.8 11.8 28 6.2 L 26.8 5.2 L 26.6 6.8 C 26.6 6.9 25.7 13.5 22.1 20.1 C 20.8 18.9 19 18.2 17.1 18.2 L 17.1 18.2 C 14.9 18.2 12.9 19.2 11.4 20.9 C 10.8 20.8 10.3 20.7 9.7 20.7 L 9.7 20.7 C 6.4 20.7 3.6 23.5 3.6 26.8 C 3.6 30.1 6.3 32.8 9.6 32.9 C 5.5 35.1 2 36.2 2 36.2 L 0.5 36.6 L 1.7 37.6 C 5.6 40.8 10.3 42.5 15.2 42.5 C 15.8 42.5 16.3 42.5 16.9 42.4 C 18.5 42.3 20 42 21.5 41.5 C 22.5 42.3 23.7 42.7 25.1 42.7 L 25.1 42.7 L 41.2 42.6 C 44.5 42.6 47.3 39.8 47.3 36.5 C 47.3 33.2 44.6 30.5 41.2 30.5 Z M 9.8 31 L 9.8 31 C 7.3 31 5.3 29 5.3 26.5 C 5.3 24 7.3 22 9.8 22 L 9.8 22 C 10.4 22 10.9 22.1 11.5 22.3 C 11.6 22.4 13.6 23.3 13.2 24.9 C 13.1 25.3 13.3 25.8 13.8 25.9 C 13.9 25.9 14 25.9 14 25.9 C 14.3 25.9 14.7 25.7 14.8 25.3 C 15.4 23.5 14.2 22.1 13.1 21.3 C 14.2 20.2 15.7 19.5 17.2 19.5 C 18.7 19.5 20.3 20.2 21.4 21.2 C 20.6 22.5 19.7 23.9 18.7 25 C 16.7 27.3 14.5 29.2 12.2 30.8 L 9.8 31 Z M 16.8 40.8 C 12.2 41.1 7.6 39.9 4 37.2 C 7.1 36 14.6 32.5 20 26.1 C 25.4 19.6 27.4 11.6 28 8.4 C 33.6 13.9 35.4 21.9 32.8 28.8 C 32.6 29.2 32.5 29.7 32.2 30.1 C 32.2 30.2 32.1 30.2 32.1 30.3 C 31.9 30.7 31.8 31.1 31.5 31.4 C 31.4 31.6 31.3 31.7 31.2 32 C 31 32.3 30.9 32.6 30.6 32.9 C 30.3 33.3 30 33.7 29.7 34.1 C 29.7 34.1 29.7 34.2 29.6 34.2 L 29.6 34.2 C 29.3 34.6 28.9 35 28.6 35.3 C 28.5 35.4 28.3 35.5 28.2 35.7 C 28 35.9 27.8 36.1 27.5 36.4 C 27.1 36.7 26.6 37.1 26.2 37.4 C 26.1 37.4 26.1 37.5 26 37.5 C 24.7 38.4 23.1 39.2 21.5 39.7 L 20.6 40 C 19.4 40.6 18.1 40.8 16.8 40.8 Z M 41.2 41 L 25.1 41.1 C 24.7 41.1 24.1 41 23.5 40.9 C 24.2 40.6 24.8 40.2 25.5 39.9 L 25.5 39.9 C 26.2 39.6 26.7 39.1 27.3 38.7 C 27.4 38.7 27.4 38.6 27.5 38.6 C 28.1 38.2 28.5 37.8 29 37.4 C 29.1 37.3 29.2 37.3 29.2 37.2 C 29.8 36.8 30.2 36.2 30.7 35.6 C 30.7 35.6 30.7 35.6 30.7 35.5 C 31 35.1 31.5 34.5 31.8 34 C 31.9 33.8 32 33.6 32.2 33.3 C 32.4 33.1 32.5 32.7 32.8 32.4 C 32.9 32.1 33.1 31.8 33.2 31.5 C 33.3 31.4 33.3 31.3 33.4 31.2 C 33.6 30.9 33.7 30.4 34 30.1 C 35.5 30.4 36.7 31.4 37.5 32.7 L 37.9 33.4 L 38.6 33 C 39.3 32.6 40.2 32.3 40.9 32.3 L 40.9 32.3 C 43.4 32.3 45.4 34.3 45.4 36.8 C 45.7 39 43.7 41 41.2 41 Z"
        fill="#231f20"/>
</svg>
