<svg
    xmlns="http://www.w3.org/2000/svg"
    viewBox="0 0 48 48"
    id="vector">
    <path
        id="path"
        d="M 24 9.7 C 23.5 9.7 23.1 9.4 23.1 8.8 L 23.1 2.4 C 23.1 1.9 23.4 1.5 24 1.5 C 24.6 1.5 24.9 1.8 24.9 2.4 L 24.9 8.9 C 24.9 9.4 24.5 9.7 24 9.7 Z"
        fill="#231f20"/>
    <path
        id="path_11"
        d="M 13.4 14.2 C 13.2 14.2 12.9 14.1 12.8 14 L 8.3 9.4 C 8 9.1 8 8.5 8.3 8.1 C 8.6 7.8 9.2 7.8 9.6 8.1 L 14.2 12.7 C 14.5 13 14.5 13.6 14.2 14 C 13.7 14.1 13.6 14.2 13.4 14.2 Z"
        fill="#231f20"/>
    <path
        id="path_12"
        d="M 8.9 24.9 L 2.4 24.9 C 1.9 24.9 1.5 24.6 1.5 24 C 1.5 23.4 1.8 23.1 2.4 23.1 L 8.9 23.1 C 9.4 23.1 9.8 23.4 9.8 24 C 9.8 24.6 9.4 24.9 8.9 24.9 Z"
        fill="#231f20"/>
    <path
        id="path_13"
        d="M 8.7 40.1 C 8.5 40.1 8.2 40 8.1 39.9 C 7.8 39.6 7.8 39 8.1 38.6 L 12.7 34 C 13 33.7 13.6 33.7 14 34 C 14.3 34.3 14.3 34.9 14 35.3 L 9.4 39.9 C 9.2 40 8.9 40.1 8.7 40.1 Z"
        fill="#231f20"/>
    <path
        id="path_14"
        d="M 24 46.5 C 23.5 46.5 23.1 46.2 23.1 45.6 L 23.1 39.1 C 23.1 38.6 23.4 38.2 24 38.2 C 24.6 38.2 24.9 38.5 24.9 39.1 L 24.9 45.6 C 24.9 46 24.5 46.5 24 46.5 Z"
        fill="#231f20"/>
    <path
        id="path_15"
        d="M 39.3 40.1 C 39.1 40.1 38.8 40 38.7 39.9 L 34.1 35.3 C 33.8 35 33.8 34.4 34.1 34 C 34.4 33.6 35 33.7 35.4 34 L 40 38.6 C 40.3 38.9 40.3 39.5 40 39.9 C 39.7 40 39.5 40.1 39.3 40.1 Z"
        fill="#231f20"/>
    <path
        id="path_16"
        d="M 45.6 24.9 L 39.1 24.9 C 38.6 24.9 38.2 24.6 38.2 24 C 38.2 23.4 38.5 23.1 39.1 23.1 L 45.6 23.1 C 46.1 23.1 46.5 23.4 46.5 24 C 46.5 24.6 46 24.9 45.6 24.9 Z"
        fill="#231f20"/>
    <path
        id="path_17"
        d="M 34.6 14.2 C 34.4 14.2 34.1 14.1 34 14 C 33.7 13.7 33.7 13.1 34 12.7 L 38.6 8.1 C 38.9 7.8 39.5 7.8 39.9 8.1 C 40.2 8.4 40.2 9 39.9 9.4 L 35.3 14 C 35.1 14.1 34.8 14.2 34.6 14.2 Z"
        fill="#231f20"/>
    <path
        id="path_18"
        d="M 24 37.4 C 16.6 37.4 10.6 31.4 10.6 24 C 10.6 16.6 16.6 10.6 24 10.6 C 31.4 10.6 37.4 16.6 37.4 24 C 37.4 31.4 31.4 37.4 24 37.4 Z M 24 12.4 C 17.6 12.4 12.4 17.6 12.4 24 C 12.4 30.4 17.6 35.6 24 35.6 C 30.4 35.6 35.6 30.4 35.6 24 C 35.6 17.6 30.4 12.4 24 12.4 Z"
        fill="#231f20"/>
</svg>
